<?xml version="1.0" encoding="UTF-8"?>
<svg version="1.1" xmlns="http://www.w3.org/2000/svg" width="291" height="385">
<path d="M0 0 C23.76 0 47.52 0 72 0 C72 0.33 72 0.66 72 1 C86.85 1.33 101.7 1.66 117 2 C117 81.86 117 161.72 117 244 C69.86672755 245.14959201 69.86672755 245.14959201 52.80249023 245.11352539 C50.77501204 245.1132167 48.74753373 245.11335651 46.72005558 245.11389065 C41.45165847 245.11410985 36.18328564 245.10845794 30.9148941 245.10128021 C25.91009981 245.09544137 20.90531043 245.09530951 15.9005127 245.09460449 C1.41283877 245.08942647 -13.07483095 245.07546585 -27.5625 245.0625 C-76.2890625 245.0315625 -76.2890625 245.0315625 -126 245 C-126 164.81 -126 84.62 -126 2 C-84.42 2 -42.84 2 0 2 C0 1.34 0 0.68 0 0 Z " fill="#030303" transform="translate(126,0)"/>
<path d="M0 0 C15.51 0 31.02 0 47 0 C47 79.86 47 159.72 47 242 C-2.43745542 242 -2.43745542 242 -16.40185547 230.07910156 C-21.31315724 226.14895254 -26.79298414 223.08895176 -32.1875 219.875 C-34.40192277 218.52179534 -36.61421386 217.16509533 -38.82421875 215.8046875 C-40.40468994 214.83354004 -40.40468994 214.83354004 -42.01708984 213.84277344 C-46.94670174 210.79737234 -51.83750944 207.69184558 -56.72802734 204.58422852 C-62.98187252 200.62025075 -69.28438596 196.73728631 -75.59573364 192.86578369 C-91.72161715 182.97210769 -91.72161715 182.97210769 -98.5625 178.625 C-99.61566406 177.95726562 -100.66882813 177.28953125 -101.75390625 176.6015625 C-104 175 -104 175 -105 173 C-103.71166992 170.36474609 -103.71166992 170.36474609 -101.73046875 167.0234375 C-101.37897263 166.42614838 -101.0274765 165.82885925 -100.66532898 165.21347046 C-99.51406473 163.26244316 -98.35110934 161.31868563 -97.1875 159.375 C-96.39095988 158.03185943 -95.5948996 156.68843418 -94.79931641 155.34472656 C-90.5355647 148.16063292 -86.21506091 141.01549934 -81.73999023 133.96069336 C-77.31173374 126.96661761 -73.08946038 119.84956605 -68.84106445 112.74536133 C-62.28806783 101.79319674 -55.6519819 90.89225202 -49 80 C-44.48762209 82.19964999 -40.23699056 84.78990727 -35.9375 87.375 C-35.0498999 87.90810791 -34.1622998 88.44121582 -33.24780273 88.99047852 C-26.5122389 93.05258386 -19.84616622 97.21568886 -13.20751953 101.43383789 C-6.5764445 105.64612863 0.09653473 109.78745998 6.78149414 113.91357422 C14.85034262 118.89747195 22.88941391 123.92846309 30.91870117 128.97583008 C31.87107666 129.57290771 32.82345215 130.16998535 33.8046875 130.78515625 C34.63983887 131.30988525 35.47499023 131.83461426 36.33544922 132.37524414 C39.51787103 134.31578081 42.7637128 136.15069303 46 138 C46 124.14 46 110.28 46 96 C44.35 95.34 42.7 94.68 41 94 C39.73499236 93.28415431 38.49041443 92.53093565 37.26953125 91.7421875 C36.56248047 91.28972656 35.85542969 90.83726563 35.12695312 90.37109375 C34.36318359 89.87738281 33.59941406 89.38367188 32.8125 88.875 C24.92531093 83.83267707 16.98140212 78.89177057 9 74 C1.05664543 69.12510096 -6.87062271 64.22776534 -14.75 59.25 C-15.50539063 58.77304687 -16.26078125 58.29609375 -17.0390625 57.8046875 C-21.06243644 55.25507691 -25.04827324 52.65933813 -29 50 C-28.41977897 45.82534282 -27.02027703 43.01350142 -24.7890625 39.45703125 C-24.12592041 38.390896 -23.46277832 37.32476074 -22.77954102 36.22631836 C-22.06149033 35.08829709 -21.34330749 33.95035919 -20.625 32.8125 C-19.89757907 31.64835302 -19.17093977 30.48371728 -18.44506836 29.31860352 C-16.98981989 26.98372305 -15.53134503 24.65090673 -14.07080078 22.31933594 C-10.72997443 16.96424574 -7.45894033 11.56713181 -4.18798828 6.16918945 C-1.10665621 1.10665621 -1.10665621 1.10665621 0 0 Z " fill="#FDFDFD" transform="translate(196,2)"/>
<path d="M0 0 C41.58 0 83.16 0 126 0 C120.7505364 9.1865613 115.45390488 18.29131157 109.9375 27.3125 C108.43506443 29.77665395 106.93422595 32.24177875 105.43359375 34.70703125 C104.87162796 35.62979355 104.87162796 35.62979355 104.29830933 36.57119751 C100.67131072 42.53097154 97.08261092 48.51345187 93.5 54.5 C88.23714273 63.28843354 82.94424291 72.05812098 77.625 80.8125 C77.27149475 81.39432037 76.9179895 81.97614075 76.55377197 82.57559204 C73.67593805 87.3114847 70.79637504 92.04632542 67.91674805 96.78112793 C65.40202887 100.9160974 62.88798525 105.0514765 60.375 109.1875 C60.02133362 109.76956207 59.66766724 110.35162415 59.30328369 110.95132446 C54.34228127 119.11834459 49.40968238 127.3020025 44.5 135.5 C38.5390914 145.45329434 32.53891024 155.38215025 26.50732422 165.29272461 C25.79652525 166.46076 25.08575062 167.62881019 24.375 168.796875 C24.02100128 169.37860977 23.66700256 169.96034454 23.30227661 170.55970764 C21.00652775 174.33555337 18.72199901 178.11798821 16.44448853 181.90486145 C14.88315878 184.50047591 13.31871419 187.09420652 11.75408936 189.68783569 C11.00746312 190.92748386 10.2623599 192.16805074 9.51885986 193.40957642 C8.48785309 195.13087715 7.451084 196.84872246 6.4140625 198.56640625 C5.53161865 200.03509155 5.53161865 200.03509155 4.63134766 201.53344727 C3 204 3 204 0 207 C0 138.69 0 70.38 0 0 Z " fill="#FEFEFE" transform="translate(0,2)"/>
<path d="M0 0 C6.25418318 2.29652467 11.63150801 5.97195632 17.25 9.5 C18.36375 10.18964844 19.4775 10.87929687 20.625 11.58984375 C21.68203125 12.25113281 22.7390625 12.91242188 23.828125 13.59375 C24.7965332 14.19896484 25.76494141 14.80417969 26.76269531 15.42773438 C29 17 29 17 30 19 C28.70454012 21.51963847 27.34873594 23.89854677 25.875 26.3125 C25.43285156 27.04855469 24.99070313 27.78460938 24.53515625 28.54296875 C23.03281744 31.03445074 21.51670402 33.51723952 20 36 C19.4318457 36.93763184 18.86369141 37.87526367 18.27832031 38.84130859 C16.52589832 41.73188662 14.76478574 44.61695622 13 47.5 C12.43651855 48.42594971 11.87303711 49.35189941 11.29248047 50.3059082 C10.76283691 51.164021 10.23319336 52.02213379 9.6875 52.90625 C9.21699219 53.67259766 8.74648437 54.43894531 8.26171875 55.22851562 C7 57 7 57 5 58 C3.17163086 57.10717773 3.17163086 57.10717773 0.96484375 55.68359375 C0.15466797 55.16603516 -0.65550781 54.64847656 -1.49023438 54.11523438 C-2.33908203 53.56158203 -3.18792969 53.00792969 -4.0625 52.4375 C-5.29516602 51.64762695 -5.29516602 51.64762695 -6.55273438 50.84179688 C-12.07699145 47.29079921 -17.54620585 43.65806274 -23 40 C-21.42833312 33.96201393 -18.1829212 29.1449918 -14.875 23.9375 C-13.70169243 22.06779021 -12.52851526 20.19799859 -11.35546875 18.328125 C-10.7836084 17.42126953 -10.21174805 16.51441406 -9.62255859 15.58007812 C-7.4532828 12.1306489 -5.31668102 8.66176842 -3.1875 5.1875 C-2.24970703 3.66189453 -2.24970703 3.66189453 -1.29296875 2.10546875 C-0.86628906 1.41066406 -0.43960938 0.71585937 0 0 Z " fill="#FBFBFB" transform="translate(70,118)"/>
<path d="M0 0 C9.93008169 5.60599988 19.46543717 11.75282791 29 18 C28.33202644 21.6406167 26.77406586 24.32081094 24.8671875 27.47265625 C23.90425781 29.07077148 23.90425781 29.07077148 22.921875 30.70117188 C21.90867187 32.3650293 21.90867187 32.3650293 20.875 34.0625 C20.22273438 35.14466797 19.57046875 36.22683594 18.8984375 37.34179688 C14.69634524 44.29109033 10.39120358 51.16876407 6 58 C2.74175829 56.76527918 -0.20955299 55.39334735 -3.1796875 53.57421875 C-3.94410156 53.10693359 -4.70851563 52.63964844 -5.49609375 52.15820312 C-6.28113281 51.67287109 -7.06617187 51.18753906 -7.875 50.6875 C-9.04095703 49.9769043 -9.04095703 49.9769043 -10.23046875 49.25195312 C-14.9641526 46.34411876 -19.51718542 43.28142027 -24 40 C-19.71599921 31.91599558 -15.10363552 24.06798205 -10.33911133 16.26220703 C-9.16896514 14.34462593 -8.00318293 12.42444011 -6.83789062 10.50390625 C-1.14355076 1.14355076 -1.14355076 1.14355076 0 0 Z " fill="#FBFBFB" transform="translate(130,22)"/>
<path d="M0 0 C6.13602286 2.2451066 11.30351784 5.88559169 16.75 9.4375 C17.81605469 10.11876953 18.88210937 10.80003906 19.98046875 11.50195312 C20.99238281 12.16001953 22.00429688 12.81808594 23.046875 13.49609375 C24.43664551 14.39606079 24.43664551 14.39606079 25.85449219 15.31420898 C28 17 28 17 29 20 C27.71814967 22.56983391 26.37959197 24.9389009 24.875 27.375 C24.43430176 28.10581787 23.99360352 28.83663574 23.53955078 29.58959961 C22.03905895 32.067716 20.5211783 34.53453093 19 37 C18.42121094 37.94149902 17.84242187 38.88299805 17.24609375 39.85302734 C13.51724254 45.91442398 9.76766887 51.9626618 6 58 C2.77753057 56.78624742 -0.07827237 55.45508353 -2.9609375 53.57421875 C-3.68023437 53.10693359 -4.39953125 52.63964844 -5.140625 52.15820312 C-5.87796875 51.67287109 -6.6153125 51.18753906 -7.375 50.6875 C-8.10460938 50.21376953 -8.83421875 49.74003906 -9.5859375 49.25195312 C-14.1418283 46.27842083 -18.59396592 43.19117771 -23 40 C-22.4288658 36.2374044 -21.4002399 33.62163711 -19.375 30.41015625 C-18.83705811 29.5493042 -18.29911621 28.68845215 -17.74487305 27.80151367 C-17.16906494 26.89763916 -16.59325684 25.99376465 -16 25.0625 C-15.12565308 23.67091675 -15.12565308 23.67091675 -14.23364258 22.2512207 C-12.49813054 19.49495952 -10.75146634 16.74614503 -9 14 C-8.50677246 13.2255957 -8.01354492 12.45119141 -7.50537109 11.65332031 C-5.02039561 7.75785749 -2.51930207 3.87334556 0 0 Z " fill="#FBFBFB" transform="translate(41,166)"/>
<path d="M0 0 C6.25512256 2.30564488 11.67210868 5.93327091 17.3125 9.4375 C18.43462891 10.11876953 19.55675781 10.80003906 20.71289062 11.50195312 C21.77314453 12.16001953 22.83339844 12.81808594 23.92578125 13.49609375 C24.89942627 14.09607178 25.87307129 14.6960498 26.8762207 15.31420898 C27.57706787 15.87052002 28.27791504 16.42683105 29 17 C29 20.46477715 28.26376287 21.60726681 26.5078125 24.54296875 C25.9718042 25.44515137 25.4357959 26.34733398 24.88354492 27.27685547 C24.3032251 28.23736816 23.72290527 29.19788086 23.125 30.1875 C22.24775269 31.65533936 22.24775269 31.65533936 21.3527832 33.15283203 C16.34455429 41.50374197 11.2178308 49.77867742 6 58 C-0.7488326 54.3909269 -7.17161135 50.3933893 -13.5625 46.1875 C-14.47580078 45.59001953 -15.38910156 44.99253906 -16.33007812 44.37695312 C-18.55520772 42.92071648 -20.77845785 41.46170106 -23 40 C-22.4288658 36.2374044 -21.4002399 33.62163711 -19.375 30.41015625 C-18.83705811 29.5493042 -18.29911621 28.68845215 -17.74487305 27.80151367 C-17.16906494 26.89763916 -16.59325684 25.99376465 -16 25.0625 C-15.12565308 23.67091675 -15.12565308 23.67091675 -14.23364258 22.2512207 C-12.49813054 19.49495952 -10.75146634 16.74614503 -9 14 C-8.50677246 13.2255957 -8.01354492 12.45119141 -7.50537109 11.65332031 C-5.02039561 7.75785749 -2.51930207 3.87334556 0 0 Z " fill="#FBFBFB" transform="translate(99,71)"/>
<path d="M0 0 C3.64756213 0.66178041 6.27733199 2.22905561 9.41015625 4.17578125 C10.47363281 4.83336426 11.53710938 5.49094727 12.6328125 6.16845703 C13.77613331 6.8829914 14.91936052 7.59767556 16.0625 8.3125 C17.23543119 9.0405981 18.40861034 9.76829688 19.58203125 10.49560547 C27.35434977 15.31994157 35.09737978 20.19131447 42.81787109 25.09814453 C47.6503098 28.16651269 52.52270836 31.14854878 57.48046875 34.01171875 C57.98191406 34.33785156 58.48335938 34.66398437 59 35 C59 35.33 59 35.66 59 36 C32.6 36 6.2 36 -21 36 C-19.59333498 32.48333746 -18.34127586 29.69674026 -16.42578125 26.5234375 C-15.92594727 25.69231445 -15.42611328 24.86119141 -14.91113281 24.00488281 C-14.38358398 23.13702148 -13.85603516 22.26916016 -13.3125 21.375 C-12.77592773 20.48651367 -12.23935547 19.59802734 -11.68652344 18.68261719 C-7.87963532 12.39746555 -4.01084039 6.15748735 0 0 Z " fill="#FCFCFC" transform="translate(71,208)"/>
<path d="M0 0 C5.30611395 0.46049115 9.02118939 3.35893235 13.3125 6.25 C14.76652312 7.21415116 16.22094878 8.17769553 17.67578125 9.140625 C18.38557129 9.61306641 19.09536133 10.08550781 19.82666016 10.57226562 C23.18016075 12.77528421 26.58576597 14.89271883 30 17 C29.02376138 23.16827389 26.9282685 28.00712524 22 32 C16.3074748 33.25052145 10.84905237 32.94909096 5.0625 32.625 C3.50470001 32.57478496 1.94674464 32.52916696 0.38867188 32.48828125 C-3.4114146 32.37859463 -7.20398948 32.20642574 -11 32 C-11.68583187 22.3689115 -11.11012673 16.05085472 -5.5 8.125 C-4.97535156 7.32964844 -4.45070313 6.53429687 -3.91015625 5.71484375 C-2.63390909 3.78887077 -1.3324975 1.88727523 0 0 Z " fill="#FBFBFB" transform="translate(11,213)"/>
<path d="M0 0 C1.70910099 0.00125869 3.41854808 0.04602474 5.12573242 0.12695312 C6.02869553 0.13827271 6.93165863 0.14959229 7.86198425 0.16125488 C10.73724428 0.20593072 13.60745764 0.30626493 16.48120117 0.40820312 C18.43360293 0.44834203 20.38608313 0.4848421 22.33862305 0.51757812 C27.11725094 0.60563622 31.89212158 0.74361354 36.66870117 0.90820312 C32.81519773 8.15967024 28.72628202 15.18416039 24.29370117 22.09570312 C23.47579102 23.38057617 23.47579102 23.38057617 22.64135742 24.69140625 C21.32029045 26.76571317 19.9960733 28.83792767 18.66870117 30.90820312 C15.24596161 30.25817271 12.79837874 28.92081469 9.86010742 27.07226562 C8.9480957 26.5025 8.03608398 25.93273437 7.09643555 25.34570312 C6.1509082 24.74757813 5.20538086 24.14945313 4.23120117 23.53320312 C2.35762438 22.35853075 0.48393022 21.18404554 -1.38989258 20.00976562 C-2.21803467 19.48721191 -3.04617676 18.9646582 -3.89941406 18.42626953 C-6.35961806 16.89052528 -8.84017419 15.39316321 -11.33129883 13.90820312 C-6.75740897 0.60234172 -6.75740897 0.60234172 0 0 Z " fill="#F9F9F9" transform="translate(147.331298828125,-0.908203125)"/>
<path d="M0 0 C0 15.84 0 31.68 0 48 C-3.22369827 49.61184913 -6.71188711 49.22621437 -10.25 49.25 C-11.00152344 49.270625 -11.75304687 49.29125 -12.52734375 49.3125 C-17.43867108 49.34678501 -20.73668512 48.69261992 -25 46 C-30.38672214 40.17651661 -30.34459852 35.13793363 -30.28125 27.46484375 C-29.89821532 22.74606924 -28.99301012 20.64014744 -26 17 C-20.30549489 12.72912117 -14.87651335 13.79162081 -8 14 C-8 9.71 -8 5.42 -8 1 C-6 0 -6 0 0 0 Z M-18.9375 22.375 C-21.84933195 26.08096794 -22.28236221 29.34505731 -22 34 C-20.85472153 37.31527977 -19.95404589 39.21631945 -17.25 41.4375 C-14.23933232 42.34049615 -14.23933232 42.34049615 -8 41 C-8 34.73 -8 28.46 -8 22 C-15.31940481 20.36329891 -15.31940481 20.36329891 -18.9375 22.375 Z " fill="#FFFFFF" transform="translate(40,280)"/>
<path d="M0 0 C2.79981969 1.61875431 3.86116933 3.28233402 5.0234375 6.25390625 C6.40156513 11.51191932 6.09876723 16.89149827 6.01171875 22.28515625 C6.00269531 23.35056641 5.99367187 24.41597656 5.984375 25.51367188 C5.96095289 28.12523659 5.92815327 30.73632562 5.88671875 33.34765625 C2.39022195 35.09590465 -1.5737618 34.57474461 -5.42578125 34.59765625 C-6.28107422 34.61828125 -7.13636719 34.63890625 -8.01757812 34.66015625 C-12.88487541 34.69031766 -16.16329272 34.52482094 -20.11328125 31.34765625 C-22.42365158 28.37718011 -22.58719111 25.09592902 -22.50390625 21.3828125 C-21.79506253 17.68973672 -19.80189314 15.91121643 -17.11328125 13.34765625 C-13.96397232 12.29788661 -11.72513669 12.2463403 -8.42578125 12.28515625 C-7.43191406 12.29417969 -6.43804687 12.30320312 -5.4140625 12.3125 C-4.27517578 12.32990234 -4.27517578 12.32990234 -3.11328125 12.34765625 C-3.88251737 10.33435133 -3.88251737 10.33435133 -5.11328125 8.34765625 C-9.71825252 7.19641343 -13.50148017 7.33530967 -18.11328125 8.34765625 C-18.44328125 6.03765625 -18.77328125 3.72765625 -19.11328125 1.34765625 C-13.68127361 -1.96454353 -5.98202483 -1.84657698 0 0 Z M-13.11328125 21.34765625 C-12.76883244 23.8203239 -12.76883244 23.8203239 -12.11328125 26.34765625 C-9.15663606 27.82597885 -6.37098388 27.40798408 -3.11328125 27.34765625 C-3.11328125 25.03765625 -3.11328125 22.72765625 -3.11328125 20.34765625 C-7.19103316 19.42089445 -9.53509162 19.00807072 -13.11328125 21.34765625 Z " fill="#FFFFFF" transform="translate(225.11328125,294.65234375)"/>
<path d="M0 0 C2.79981969 1.61875431 3.86116933 3.28233402 5.0234375 6.25390625 C6.40156513 11.51191932 6.09876723 16.89149827 6.01171875 22.28515625 C6.00269531 23.35056641 5.99367188 24.41597656 5.984375 25.51367188 C5.96095289 28.12523659 5.92815327 30.73632562 5.88671875 33.34765625 C2.39022195 35.09590465 -1.5737618 34.57474461 -5.42578125 34.59765625 C-6.28107422 34.61828125 -7.13636719 34.63890625 -8.01757812 34.66015625 C-12.88487541 34.69031766 -16.16329272 34.52482094 -20.11328125 31.34765625 C-22.42365158 28.37718011 -22.58719111 25.09592902 -22.50390625 21.3828125 C-21.79506253 17.68973672 -19.80189314 15.91121643 -17.11328125 13.34765625 C-13.96397232 12.29788661 -11.72513669 12.2463403 -8.42578125 12.28515625 C-7.43191406 12.29417969 -6.43804687 12.30320312 -5.4140625 12.3125 C-4.27517578 12.32990234 -4.27517578 12.32990234 -3.11328125 12.34765625 C-3.88251737 10.33435133 -3.88251737 10.33435133 -5.11328125 8.34765625 C-9.71825252 7.19641343 -13.50148017 7.33530967 -18.11328125 8.34765625 C-18.44328125 6.03765625 -18.77328125 3.72765625 -19.11328125 1.34765625 C-13.68127361 -1.96454353 -5.98202483 -1.84657698 0 0 Z M-13.11328125 21.34765625 C-12.76883244 23.8203239 -12.76883244 23.8203239 -12.11328125 26.34765625 C-9.15663606 27.82597885 -6.37098388 27.40798408 -3.11328125 27.34765625 C-3.11328125 25.03765625 -3.11328125 22.72765625 -3.11328125 20.34765625 C-7.19103316 19.42089445 -9.53509162 19.00807072 -13.11328125 21.34765625 Z " fill="#FFFFFF" transform="translate(69.11328125,294.65234375)"/>
<path d="M0 0 C4.16279806 2.05425035 6.41723643 4.90434468 8.19921875 9.046875 C9.88822392 15.03334896 9.76542568 21.0856399 7.296875 26.82421875 C5.00719415 30.69600547 2.19623077 33.11117293 -2.140625 34.38671875 C-7.43511227 35.12548442 -11.67894477 35.05111885 -16.578125 32.82421875 C-21.95427755 27.71031754 -23.38603199 24.15716075 -23.578125 16.82421875 C-23.41153183 11.98191049 -23.10803906 8.37737903 -20.140625 4.38671875 C-14.13112348 -1.03648994 -7.92276306 -2.2698427 0 0 Z M-11.953125 8.32421875 C-14.62038019 12.05837602 -15.46225765 14.8213219 -15.140625 19.38671875 C-13.63779703 23.44435428 -12.75903759 24.97444369 -9.140625 27.38671875 C-5.78919979 27.24707603 -3.85902715 27.12535758 -1.4765625 24.67578125 C0.15139339 21.88635975 0.2608577 20.09995304 0.234375 16.88671875 C0.24210937 15.94828125 0.24984375 15.00984375 0.2578125 14.04296875 C-0.20343601 10.96797871 -1.00001281 9.61315737 -3.140625 7.38671875 C-7.11973771 5.9161771 -8.42185496 5.89156605 -11.953125 8.32421875 Z " fill="#FFFFFF" transform="translate(163.140625,294.61328125)"/>
<path d="M0 0 C0 3.3 0 6.6 0 10 C3.63 10 7.26 10 11 10 C11 12.31 11 14.62 11 17 C7.37 17 3.74 17 0 17 C0.33 22.94 0.66 28.88 1 35 C2.98 35.33 4.96 35.66 7 36 C8.66804677 36.32635698 10.33524314 36.65725594 12 37 C12 38.98 12 40.96 12 43 C9.30335792 44.34832104 7.13412479 44.16910682 4.125 44.1875 C3.07570312 44.20167969 2.02640625 44.21585937 0.9453125 44.23046875 C-2.08196253 43.99358649 -3.58942612 43.82097464 -6 42 C-8.94646653 37.25073447 -9.40802449 33.21650587 -9.29296875 27.7578125 C-9.28872391 26.98944061 -9.28447906 26.22106873 -9.28010559 25.42941284 C-9.26341826 22.99424015 -9.22578641 20.5599192 -9.1875 18.125 C-9.17244023 16.46615785 -9.15875409 14.80730263 -9.14648438 13.1484375 C-9.11354759 9.0986341 -9.06183594 5.04946106 -9 1 C-6.04335481 -0.4783226 -3.25770263 -0.06032783 0 0 Z " fill="#FFFFFF" transform="translate(188,285)"/>
<path d="M0 0 C0.82564453 0.48339844 0.82564453 0.48339844 1.66796875 0.9765625 C1.00796875 3.2865625 0.34796875 5.5965625 -0.33203125 7.9765625 C-1.23695313 7.83347656 -1.23695313 7.83347656 -2.16015625 7.6875 C-2.959375 7.57664062 -3.75859375 7.46578125 -4.58203125 7.3515625 C-5.3709375 7.23554688 -6.15984375 7.11953125 -6.97265625 7 C-9.69845977 6.97292248 -11.05952704 7.50465606 -13.33203125 8.9765625 C-16.06437856 13.40036291 -15.27858979 17.08601005 -14.33203125 21.9765625 C-13.67203125 22.9665625 -13.01203125 23.9565625 -12.33203125 24.9765625 C-7.66025948 25.89559957 -3.97055029 26.28114598 0.66796875 24.9765625 C0.99796875 27.6165625 1.32796875 30.2565625 1.66796875 32.9765625 C-3.79413122 34.79726249 -10.93934876 35.20505729 -16.4140625 33.22265625 C-20.42621001 30.63253571 -22.8439291 27.44086896 -24.33203125 22.9765625 C-24.96036401 15.35416505 -25.35580986 9.0308598 -20.33203125 2.9765625 C-14.56287657 -1.61521367 -6.96547533 -3.05687527 0 0 Z " fill="#FFFFFF" transform="translate(135.33203125,295.0234375)"/>
<path d="M0 0 C0.82564453 0.48339844 0.82564453 0.48339844 1.66796875 0.9765625 C1.00796875 3.2865625 0.34796875 5.5965625 -0.33203125 7.9765625 C-1.23695312 7.83347656 -1.23695312 7.83347656 -2.16015625 7.6875 C-2.959375 7.57664062 -3.75859375 7.46578125 -4.58203125 7.3515625 C-5.3709375 7.23554688 -6.15984375 7.11953125 -6.97265625 7 C-9.69845977 6.97292248 -11.05952704 7.50465606 -13.33203125 8.9765625 C-16.06437856 13.40036291 -15.27858979 17.08601005 -14.33203125 21.9765625 C-13.67203125 22.9665625 -13.01203125 23.9565625 -12.33203125 24.9765625 C-7.66025948 25.89559957 -3.97055029 26.28114598 0.66796875 24.9765625 C0.99796875 27.6165625 1.32796875 30.2565625 1.66796875 32.9765625 C-3.79413122 34.79726249 -10.93934876 35.20505729 -16.4140625 33.22265625 C-20.42621001 30.63253571 -22.8439291 27.44086896 -24.33203125 22.9765625 C-24.96036401 15.35416505 -25.35580986 9.0308598 -20.33203125 2.9765625 C-14.56287657 -1.61521367 -6.96547533 -3.05687527 0 0 Z " fill="#FFFFFF" transform="translate(106.33203125,295.0234375)"/>
<path d="M0 0 C1.7325 0.1546875 1.7325 0.1546875 3.5 0.3125 C5.5 3.3125 5.5 3.3125 5.1875 6.4375 C4.5 9.3125 4.5 9.3125 3.5 10.3125 C0.0625 10.5 0.0625 10.5 -3.5 10.3125 C-5.5 8.3125 -5.5 8.3125 -5.75 5.3125 C-5.37833659 0.85253908 -4.40663794 0.39344982 0 0 Z " fill="#FFFFFF" transform="translate(243.5,318.6875)"/>
</svg>
