<?xml version="1.0" encoding="UTF-8"?>
<svg version="1.1" xmlns="http://www.w3.org/2000/svg" width="286" height="373">
<path d="M0 0 C79.86 0 159.72 0 242 0 C242 80.85 242 161.7 242 245 C162.14 245 82.28 245 0 245 C0 164.15 0 83.3 0 0 Z " fill="#FBFBFB" transform="translate(0,0)"/>
<path d="M0 0 C7.58926331 4.0288909 14.92746431 8.34467735 22.1875 12.9375 C24.30856136 14.27088486 26.42965604 15.60421671 28.55078125 16.9375 C29.62279785 17.61296875 30.69481445 18.2884375 31.79931641 18.984375 C36.81845006 22.1451658 41.84604311 25.29236926 46.875 28.4375 C48.33546753 29.35196899 48.33546753 29.35196899 49.82543945 30.28491211 C55.1809557 33.63303992 60.55003899 36.95752832 65.9375 40.25390625 C66.51815216 40.60956161 67.09880432 40.96521698 67.697052 41.33164978 C70.49458726 43.04486735 73.29401294 44.75471593 76.09716797 46.45874023 C77.11439941 47.08079346 78.13163086 47.70284668 79.1796875 48.34375 C80.06382324 48.88193359 80.94795898 49.42011719 81.85888672 49.97460938 C82.8954541 50.64298828 83.93202148 51.31136719 85 52 C85.84285553 52.31763809 86.68571106 52.63527618 87.55410767 52.96253967 C91.0161563 54.60169576 92.73037292 55.87745087 95 59 C96.92924853 66.5405877 96.15781994 74.72624747 95.9765625 82.43359375 C95.95790167 84.7552638 95.94367158 87.07697333 95.9336853 89.3986969 C95.89557855 95.49727905 95.79741548 101.59346361 95.68664551 107.69110107 C95.58418294 113.9180864 95.53864129 120.14546079 95.48828125 126.37304688 C95.38116679 138.58308231 95.21058879 150.79134147 95 163 C89.25901516 163.16392726 83.5194329 163.282104 77.77664185 163.36048889 C75.82901234 163.39320974 73.88154038 163.43777946 71.93447876 163.49507141 C54.87864658 163.98385959 45.16980957 161.0623764 31.70117188 150.11230469 C27.1037138 146.51711241 22.10822132 143.58657163 17.125 140.5625 C15.13263888 139.32007164 13.14176128 138.07526129 11.15234375 136.828125 C4.68177201 132.79403523 -1.81432286 128.80191729 -8.3125 124.8125 C-17.45752623 119.19783213 -26.55961755 113.52180524 -35.62109375 107.7734375 C-42.39105095 103.4789596 -49.19675854 99.24146916 -56 95 C-55.49596669 89.71815091 -52.72897763 85.83984491 -50 81.4375 C-49.47237061 80.57253906 -48.94474121 79.70757812 -48.40112305 78.81640625 C-47.23435029 76.90431157 -46.06451417 74.99408379 -44.89208984 73.08544922 C-42.57691718 69.31007475 -40.28097947 65.5232176 -37.98591614 61.7355957 C-35.48085038 57.60169124 -32.97208653 53.47005564 -30.4609375 49.33984375 C-27.44274781 44.37525131 -24.42724903 39.40903684 -21.4140625 34.44140625 C-20.65650212 33.19270349 -19.89893384 31.94400553 -19.14135742 30.6953125 C-17.72191076 28.35567363 -16.30285477 26.01579941 -14.8840332 23.67578125 C-11.45555752 18.02599798 -8.01899022 12.38117743 -4.56640625 6.74609375 C-3.90713135 5.66900146 -3.24785645 4.59190918 -2.56860352 3.48217773 C-1 1 -1 1 0 0 Z " fill="#000000" transform="translate(147,82)"/>
<path d="M0 0 C41.91 0 83.82 0 127 0 C120.25474411 12.36630247 120.25474411 12.36630247 117.22265625 17.3203125 C116.55234375 18.41923828 115.88203125 19.51816406 115.19140625 20.65039062 C114.84480957 21.21604736 114.49821289 21.7817041 114.14111328 22.36450195 C112.25667991 25.44024867 110.38093674 28.5212946 108.50390625 31.6015625 C108.12307892 32.22601257 107.74225159 32.85046265 107.34988403 33.49383545 C103.7028409 39.47770249 100.097875 45.48645728 96.5 51.5 C91.23724782 60.28849557 85.94428036 69.05814477 80.625 77.8125 C80.27249176 78.39265869 79.91998352 78.97281738 79.55679321 79.57055664 C77.40285908 83.1150161 75.24803483 86.65893386 73.09295654 90.20269775 C69.78989939 95.63437944 66.48802451 101.066779 63.1875 106.5 C62.82899963 107.09011871 62.47049927 107.68023743 62.10113525 108.28823853 C57.71299737 115.51291509 53.34127765 122.74705426 49 130 C42.50217089 140.85588295 35.92885034 151.66578603 29.35661316 162.47669983 C26.70673684 166.83590153 24.05974313 171.19684453 21.4140625 175.55859375 C20.65650212 176.80729651 19.89893384 178.05599447 19.14135742 179.3046875 C17.72191076 181.64432637 16.30285477 183.98420059 14.8840332 186.32421875 C13.58296531 188.46824785 12.2803612 190.61134563 10.97607422 192.75341797 C9.56739731 195.0677972 8.16325805 197.38463489 6.76220703 199.70361328 C6.03045001 200.90798491 5.29852138 202.11225228 4.56640625 203.31640625 C3.90713135 204.4051001 3.24785645 205.49379395 2.56860352 206.61547852 C1.79214478 207.79581665 1.79214478 207.79581665 1 209 C0.67 209 0.34 209 0 209 C0 140.03 0 71.06 0 0 Z " fill="#000000" transform="translate(0,0)"/>
<path d="M0 0 C15.18 0 30.36 0 46 0 C46 32.67 46 65.34 46 99 C30.02555762 89.87174721 30.02555762 89.87174721 23.125 85.4375 C21.50299155 84.4043395 19.88057509 83.37181934 18.2578125 82.33984375 C16.9879248 81.53135986 16.9879248 81.53135986 15.69238281 80.70654297 C10.81077562 77.61237954 5.90401381 74.55847593 1 71.5 C-9.35635697 65.03621052 -19.68611747 58.53131476 -30 52 C-28.19687959 45.23556647 -24.34753854 39.74157013 -20.50561523 33.97583008 C-16.46756826 27.80325847 -13.63635035 21.94117841 -11.42871094 14.890625 C-9.5625 11.1875 -9.5625 11.1875 0 0 Z " fill="#010101" transform="translate(196,0)"/>
<path d="M0 0 C5.03967251 1.73048996 9.36892618 4.5267253 13.875 7.3125 C15.04095703 8.0230957 15.04095703 8.0230957 16.23046875 8.74804688 C20.9641526 11.65588124 25.51718542 14.71857973 30 18 C25.88573404 25.75603343 21.4854298 33.30146494 16.8762207 40.7734375 C15.79837674 42.52292396 14.72815466 44.27692819 13.65820312 46.03125 C12.97306641 47.145 12.28792969 48.25875 11.58203125 49.40625 C10.96561768 50.40978516 10.3492041 51.41332031 9.71411133 52.44726562 C8.27333993 54.59292945 6.90934031 56.27878104 5 58 C3.9941687 57.34197388 3.9941687 57.34197388 2.96801758 56.6706543 C-0.08318878 54.67529989 -3.13533415 52.68138639 -6.1875 50.6875 C-7.77014648 49.65206055 -7.77014648 49.65206055 -9.38476562 48.59570312 C-10.40634766 47.92861328 -11.42792969 47.26152344 -12.48046875 46.57421875 C-13.41785889 45.96151123 -14.35524902 45.34880371 -15.32104492 44.7175293 C-17.8529837 43.09425496 -20.41250061 41.53280098 -23 40 C-22.46549199 35.23472522 -20.24836978 31.80395202 -17.6875 27.875 C-17.03612061 26.8550293 -17.03612061 26.8550293 -16.37158203 25.81445312 C-15.42846749 24.33769488 -14.48237702 22.86283396 -13.53369141 21.38964844 C-11.33831032 17.96901964 -9.17367488 14.52923997 -7.00708008 11.09033203 C-4.67601973 7.39062369 -2.33802272 3.6953109 0 0 Z " fill="#070A0A" transform="translate(131,15)"/>
<path d="M0 0 C10.19468776 5.21611815 19.54612946 11.56205942 29 18 C28.4288658 21.7625956 27.4002399 24.37836289 25.375 27.58984375 C24.83705811 28.4506958 24.29911621 29.31154785 23.74487305 30.19848633 C23.16906494 31.10236084 22.59325684 32.00623535 22 32.9375 C21.41710205 33.86522217 20.8342041 34.79294434 20.23364258 35.7487793 C18.49813054 38.50504048 16.75146634 41.25385497 15 44 C14.50677246 44.7744043 14.01354492 45.54880859 13.50537109 46.34667969 C11.02039561 50.24214251 8.51930207 54.12665444 6 58 C2.30691262 56.63674923 -0.87525785 54.95756044 -4.1953125 52.84765625 C-5.15824219 52.23599609 -6.12117188 51.62433594 -7.11328125 50.99414062 C-8.10714844 50.35669922 -9.10101563 49.71925781 -10.125 49.0625 C-11.62740234 48.11213867 -11.62740234 48.11213867 -13.16015625 47.14257812 C-21.26775086 41.96786506 -21.26775086 41.96786506 -24 39 C-16 26 -8 13 0 0 Z " fill="#070A0A" transform="translate(72,111)"/>
<path d="M0 0 C3.69308738 1.36325077 6.87525785 3.04243956 10.1953125 5.15234375 C11.15824219 5.76400391 12.12117188 6.37566406 13.11328125 7.00585938 C14.10714844 7.64330078 15.10101563 8.28074219 16.125 8.9375 C17.12660156 9.57107422 18.12820312 10.20464844 19.16015625 10.85742188 C27.26775086 16.03213494 27.26775086 16.03213494 30 19 C22.08370882 32.05313031 14.13653738 45.08277822 6 58 C-4.22519176 52.86488167 -13.55903772 46.42915026 -23 40 C-22.46549199 35.23472522 -20.24836978 31.80395202 -17.6875 27.875 C-17.03612061 26.8550293 -17.03612061 26.8550293 -16.37158203 25.81445312 C-15.42846749 24.33769488 -14.48237702 22.86283396 -13.53369141 21.38964844 C-11.33831032 17.96901964 -9.17367488 14.52923997 -7.00708008 11.09033203 C-4.67601973 7.39062369 -2.33802272 3.6953109 0 0 Z " fill="#070A0A" transform="translate(44,159)"/>
<path d="M0 0 C5.30611395 0.46049115 9.02118939 3.35893235 13.3125 6.25 C14.76652312 7.21415116 16.22094878 8.17769553 17.67578125 9.140625 C18.38557129 9.61306641 19.09536133 10.08550781 19.82666016 10.57226562 C23.18016075 12.77528421 26.58576597 14.89271883 30 17 C28.53568251 20.97588551 26.64764204 24.47593319 24.48046875 28.11328125 C24.14002029 28.68652634 23.79957184 29.25977142 23.44880676 29.85038757 C22.36503474 31.67309858 21.27625179 33.49276021 20.1875 35.3125 C19.46779081 36.52260324 18.74838705 37.73288819 18.02929688 38.94335938 C14.42168149 45.00637749 10.77054304 51.03676396 7 57 C1.48277977 55.5095661 -2.73818764 52.8162199 -7.4375 49.6875 C-8.16259766 49.21376953 -8.88769531 48.74003906 -9.63476562 48.25195312 C-14.16938783 45.27368823 -18.6043729 42.17944569 -23 39 C-21.50374583 34.88840826 -19.50292995 31.32949953 -17.2265625 27.59765625 C-16.67903824 26.69737953 -16.67903824 26.69737953 -16.12045288 25.77891541 C-15.35063115 24.51469531 -14.57900038 23.25157521 -13.80566406 21.98950195 C-12.6321358 20.07414658 -11.46402238 18.15557702 -10.296875 16.23632812 C-6.95689205 10.75803203 -3.58738796 5.31993897 0 0 Z " fill="#070A0A" transform="translate(101,64)"/>
<path d="M0 0 C7.33812622 3.8884522 14.40577632 8.04945261 21.375 12.5625 C29.90491612 18.04160244 38.48501978 23.42877169 47.12255859 28.73657227 C56.22052003 34.33718457 56.22052003 34.33718457 60 37 C60 37.33 60 37.66 60 38 C32.94 38 5.88 38 -22 38 C-20.54432347 34.36080866 -19.1749161 31.40384901 -17.20703125 28.0859375 C-16.66199951 27.16441895 -16.11696777 26.24290039 -15.55541992 25.29345703 C-14.98025635 24.33036621 -14.40509277 23.36727539 -13.8125 22.375 C-13.22895752 21.39257324 -12.64541504 20.41014648 -12.04418945 19.39794922 C-8.14418832 12.85436684 -4.16535086 6.37834915 0 0 Z " fill="#020202" transform="translate(71,207)"/>
<path d="M0 0 C6.7488326 3.6090731 13.17161135 7.6066107 19.5625 11.8125 C20.47580078 12.40998047 21.38910156 13.00746094 22.33007812 13.62304688 C24.55520772 15.07928352 26.77845785 16.53829894 29 18 C27.6969651 24.59356018 24.71454603 30.28790946 20 35 C14.25470859 36.61960363 8.90012108 36.24450674 3 35.8125 C1.44685713 35.74720513 -0.10654996 35.68790413 -1.66015625 35.63476562 C-5.44668459 35.49227047 -9.2204131 35.26865334 -13 35 C-13.78496427 24.91297958 -12.7664518 18.54595832 -7.0625 10.1875 C-6.49853516 9.30513672 -5.93457031 8.42277344 -5.35351562 7.51367188 C-1.44933712 1.44933712 -1.44933712 1.44933712 0 0 Z " fill="#070909" transform="translate(13,210)"/>
<path d="M0 0 C0 15.84 0 31.68 0 48 C-3.22369827 49.61184913 -6.71188711 49.22621437 -10.25 49.25 C-11.00152344 49.270625 -11.75304687 49.29125 -12.52734375 49.3125 C-17.43867108 49.34678501 -20.73668512 48.69261992 -25 46 C-30.38672214 40.17651661 -30.34459852 35.13793363 -30.28125 27.46484375 C-29.89821532 22.74606924 -28.99301012 20.64014744 -26 17 C-20.30549489 12.72912117 -14.87651335 13.79162081 -8 14 C-8 9.71 -8 5.42 -8 1 C-6 0 -6 0 0 0 Z M-18.9375 22.375 C-21.84933195 26.08096794 -22.28236221 29.34505731 -22 34 C-20.85472153 37.31527977 -19.95404589 39.21631945 -17.25 41.4375 C-14.23933232 42.34049615 -14.23933232 42.34049615 -8 41 C-8 34.73 -8 28.46 -8 22 C-15.31940481 20.36329891 -15.31940481 20.36329891 -18.9375 22.375 Z " fill="#000000" transform="translate(35,268)"/>
<path d="M0 0 C2.79981969 1.61875431 3.86116933 3.28233402 5.0234375 6.25390625 C6.40156513 11.51191932 6.09876723 16.89149827 6.01171875 22.28515625 C6.00269531 23.35056641 5.99367187 24.41597656 5.984375 25.51367188 C5.96095289 28.12523659 5.92815327 30.73632562 5.88671875 33.34765625 C2.39022195 35.09590465 -1.5737618 34.57474461 -5.42578125 34.59765625 C-6.28107422 34.61828125 -7.13636719 34.63890625 -8.01757812 34.66015625 C-12.88487541 34.69031766 -16.16329272 34.52482094 -20.11328125 31.34765625 C-22.42365158 28.37718011 -22.58719111 25.09592902 -22.50390625 21.3828125 C-21.79506253 17.68973672 -19.80189314 15.91121643 -17.11328125 13.34765625 C-13.96397232 12.29788661 -11.72513669 12.2463403 -8.42578125 12.28515625 C-7.43191406 12.29417969 -6.43804687 12.30320312 -5.4140625 12.3125 C-4.27517578 12.32990234 -4.27517578 12.32990234 -3.11328125 12.34765625 C-3.88251737 10.33435133 -3.88251737 10.33435133 -5.11328125 8.34765625 C-9.71825252 7.19641343 -13.50148017 7.33530967 -18.11328125 8.34765625 C-18.44328125 6.03765625 -18.77328125 3.72765625 -19.11328125 1.34765625 C-13.68127361 -1.96454353 -5.98202483 -1.84657698 0 0 Z M-13.11328125 21.34765625 C-12.76883244 23.8203239 -12.76883244 23.8203239 -12.11328125 26.34765625 C-9.15663606 27.82597885 -6.37098388 27.40798408 -3.11328125 27.34765625 C-3.11328125 25.03765625 -3.11328125 22.72765625 -3.11328125 20.34765625 C-7.19103316 19.42089445 -9.53509162 19.00807072 -13.11328125 21.34765625 Z " fill="#000000" transform="translate(220.11328125,282.65234375)"/>
<path d="M0 0 C2.79981969 1.61875431 3.86116933 3.28233402 5.0234375 6.25390625 C6.40156513 11.51191932 6.09876723 16.89149827 6.01171875 22.28515625 C6.00269531 23.35056641 5.99367188 24.41597656 5.984375 25.51367188 C5.96095289 28.12523659 5.92815327 30.73632562 5.88671875 33.34765625 C2.39022195 35.09590465 -1.5737618 34.57474461 -5.42578125 34.59765625 C-6.28107422 34.61828125 -7.13636719 34.63890625 -8.01757812 34.66015625 C-12.88487541 34.69031766 -16.16329272 34.52482094 -20.11328125 31.34765625 C-22.42365158 28.37718011 -22.58719111 25.09592902 -22.50390625 21.3828125 C-21.79506253 17.68973672 -19.80189314 15.91121643 -17.11328125 13.34765625 C-13.96397232 12.29788661 -11.72513669 12.2463403 -8.42578125 12.28515625 C-7.43191406 12.29417969 -6.43804687 12.30320312 -5.4140625 12.3125 C-4.27517578 12.32990234 -4.27517578 12.32990234 -3.11328125 12.34765625 C-3.88251737 10.33435133 -3.88251737 10.33435133 -5.11328125 8.34765625 C-9.71825252 7.19641343 -13.50148017 7.33530967 -18.11328125 8.34765625 C-18.44328125 6.03765625 -18.77328125 3.72765625 -19.11328125 1.34765625 C-13.68127361 -1.96454353 -5.98202483 -1.84657698 0 0 Z M-13.11328125 21.34765625 C-12.76883244 23.8203239 -12.76883244 23.8203239 -12.11328125 26.34765625 C-9.15663606 27.82597885 -6.37098388 27.40798408 -3.11328125 27.34765625 C-3.11328125 25.03765625 -3.11328125 22.72765625 -3.11328125 20.34765625 C-7.19103316 19.42089445 -9.53509162 19.00807072 -13.11328125 21.34765625 Z " fill="#000000" transform="translate(64.11328125,282.65234375)"/>
<path d="M0 0 C2.48248309 -0.14331159 4.91904952 -0.12316632 7.4046936 -0.05038452 C8.3104866 -0.04330978 9.2162796 -0.03623505 10.14952087 -0.02894592 C13.04401068 -0.00094555 15.93656936 0.06180232 18.83047485 0.12539673 C20.79203547 0.15047235 22.75362639 0.1732868 24.71524048 0.1937561 C29.52522991 0.24889957 34.33377494 0.33521031 39.14297485 0.43789673 C35.65167637 6.91928247 32.09299167 13.33493539 28.26797485 19.62539673 C27.86578735 20.29119751 27.46359985 20.95699829 27.04922485 21.64297485 C26.08257368 23.24255238 25.11310011 24.8404238 24.14297485 26.43789673 C18.60399089 24.95033389 14.40534627 22.22107734 9.70547485 19.06289673 C4.60339366 15.67057964 -0.50047798 12.41610873 -5.85702515 9.43789673 C-5.14396675 5.58738136 -4.2865016 1.01078062 0 0 Z " fill="#0A0C0C" transform="translate(141.85702514648438,-0.437896728515625)"/>
<path d="M0 0 C4.16279806 2.05425035 6.41723643 4.90434468 8.19921875 9.046875 C9.88822392 15.03334896 9.76542568 21.0856399 7.296875 26.82421875 C5.00719415 30.69600547 2.19623077 33.11117293 -2.140625 34.38671875 C-7.43511227 35.12548442 -11.67894477 35.05111885 -16.578125 32.82421875 C-21.95427755 27.71031754 -23.38603199 24.15716075 -23.578125 16.82421875 C-23.41153183 11.98191049 -23.10803906 8.37737903 -20.140625 4.38671875 C-14.13112348 -1.03648994 -7.92276306 -2.2698427 0 0 Z M-11.953125 8.32421875 C-14.62038019 12.05837602 -15.46225765 14.8213219 -15.140625 19.38671875 C-13.63779703 23.44435428 -12.75903759 24.97444369 -9.140625 27.38671875 C-5.78919979 27.24707603 -3.85902715 27.12535758 -1.4765625 24.67578125 C0.15139339 21.88635975 0.2608577 20.09995304 0.234375 16.88671875 C0.24210937 15.94828125 0.24984375 15.00984375 0.2578125 14.04296875 C-0.20343601 10.96797871 -1.00001281 9.61315737 -3.140625 7.38671875 C-7.11973771 5.9161771 -8.42185496 5.89156605 -11.953125 8.32421875 Z " fill="#000000" transform="translate(158.140625,282.61328125)"/>
<path d="M0 0 C0 3.3 0 6.6 0 10 C3.63 10 7.26 10 11 10 C11 12.31 11 14.62 11 17 C7.37 17 3.74 17 0 17 C0.33 22.94 0.66 28.88 1 35 C2.98 35.33 4.96 35.66 7 36 C8.66804677 36.32635698 10.33524314 36.65725594 12 37 C12 38.98 12 40.96 12 43 C9.30335792 44.34832104 7.13412479 44.16910682 4.125 44.1875 C3.07570312 44.20167969 2.02640625 44.21585937 0.9453125 44.23046875 C-2.08196253 43.99358649 -3.58942612 43.82097464 -6 42 C-8.94646653 37.25073447 -9.40802449 33.21650587 -9.29296875 27.7578125 C-9.28872391 26.98944061 -9.28447906 26.22106873 -9.28010559 25.42941284 C-9.26341826 22.99424015 -9.22578641 20.5599192 -9.1875 18.125 C-9.17244023 16.46615785 -9.15875409 14.80730263 -9.14648438 13.1484375 C-9.11354759 9.0986341 -9.06183594 5.04946106 -9 1 C-6.04335481 -0.4783226 -3.25770263 -0.06032783 0 0 Z " fill="#000000" transform="translate(183,273)"/>
<path d="M0 0 C0.82564453 0.48339844 0.82564453 0.48339844 1.66796875 0.9765625 C1.00796875 3.2865625 0.34796875 5.5965625 -0.33203125 7.9765625 C-1.23695313 7.83347656 -1.23695313 7.83347656 -2.16015625 7.6875 C-2.959375 7.57664062 -3.75859375 7.46578125 -4.58203125 7.3515625 C-5.3709375 7.23554688 -6.15984375 7.11953125 -6.97265625 7 C-9.69845977 6.97292248 -11.05952704 7.50465606 -13.33203125 8.9765625 C-16.06437856 13.40036291 -15.27858979 17.08601005 -14.33203125 21.9765625 C-13.67203125 22.9665625 -13.01203125 23.9565625 -12.33203125 24.9765625 C-7.66025948 25.89559957 -3.97055029 26.28114598 0.66796875 24.9765625 C0.99796875 27.6165625 1.32796875 30.2565625 1.66796875 32.9765625 C-3.79413122 34.79726249 -10.93934876 35.20505729 -16.4140625 33.22265625 C-20.42621001 30.63253571 -22.8439291 27.44086896 -24.33203125 22.9765625 C-24.96036401 15.35416505 -25.35580986 9.0308598 -20.33203125 2.9765625 C-14.56287657 -1.61521367 -6.96547533 -3.05687527 0 0 Z " fill="#000000" transform="translate(130.33203125,283.0234375)"/>
<path d="M0 0 C0.82564453 0.48339844 0.82564453 0.48339844 1.66796875 0.9765625 C1.00796875 3.2865625 0.34796875 5.5965625 -0.33203125 7.9765625 C-1.23695312 7.83347656 -1.23695312 7.83347656 -2.16015625 7.6875 C-2.959375 7.57664062 -3.75859375 7.46578125 -4.58203125 7.3515625 C-5.3709375 7.23554688 -6.15984375 7.11953125 -6.97265625 7 C-9.69845977 6.97292248 -11.05952704 7.50465606 -13.33203125 8.9765625 C-16.06437856 13.40036291 -15.27858979 17.08601005 -14.33203125 21.9765625 C-13.67203125 22.9665625 -13.01203125 23.9565625 -12.33203125 24.9765625 C-7.66025948 25.89559957 -3.97055029 26.28114598 0.66796875 24.9765625 C0.99796875 27.6165625 1.32796875 30.2565625 1.66796875 32.9765625 C-3.79413122 34.79726249 -10.93934876 35.20505729 -16.4140625 33.22265625 C-20.42621001 30.63253571 -22.8439291 27.44086896 -24.33203125 22.9765625 C-24.96036401 15.35416505 -25.35580986 9.0308598 -20.33203125 2.9765625 C-14.56287657 -1.61521367 -6.96547533 -3.05687527 0 0 Z " fill="#000000" transform="translate(101.33203125,283.0234375)"/>
<path d="M0 0 C1.7325 0.1546875 1.7325 0.1546875 3.5 0.3125 C5.5 3.3125 5.5 3.3125 5.1875 6.4375 C4.5 9.3125 4.5 9.3125 3.5 10.3125 C0.0625 10.5 0.0625 10.5 -3.5 10.3125 C-5.5 8.3125 -5.5 8.3125 -5.75 5.3125 C-5.37833659 0.85253908 -4.40663794 0.39344982 0 0 Z " fill="#000000" transform="translate(238.5,306.6875)"/>
</svg>
